<svg id="Layer_1" data-name="Layer 1" xmlns="http://www.w3.org/2000/svg" viewBox="0 0 583 574"><defs><style>.cls-1{fill:#72c4c1;}</style></defs><circle class="cls-1" cx="25" cy="25" r="25"/><circle class="cls-1" cx="158.25" cy="25" r="25"/><circle class="cls-1" cx="291.5" cy="25" r="25"/><circle class="cls-1" cx="424.75" cy="25" r="25"/><circle class="cls-1" cx="558" cy="25" r="25"/><circle class="cls-1" cx="25" cy="156" r="25"/><circle class="cls-1" cx="158.25" cy="156" r="25"/><circle class="cls-1" cx="291.5" cy="156" r="25"/><circle class="cls-1" cx="424.75" cy="156" r="25"/><circle class="cls-1" cx="558" cy="156" r="25"/><circle class="cls-1" cx="25" cy="287" r="25"/><circle class="cls-1" cx="158.25" cy="287" r="25"/><circle class="cls-1" cx="291.5" cy="287" r="25"/><circle class="cls-1" cx="424.75" cy="287" r="25"/><circle class="cls-1" cx="558" cy="287" r="25"/><circle class="cls-1" cx="25" cy="418" r="25"/><circle class="cls-1" cx="158.25" cy="418" r="25"/><circle class="cls-1" cx="291.5" cy="418" r="25"/><circle class="cls-1" cx="424.75" cy="418" r="25"/><circle class="cls-1" cx="558" cy="418" r="25"/><circle class="cls-1" cx="25" cy="549" r="25"/><circle class="cls-1" cx="158.25" cy="549" r="25"/><circle class="cls-1" cx="291.5" cy="549" r="25"/><circle class="cls-1" cx="424.75" cy="549" r="25"/><circle class="cls-1" cx="558" cy="549" r="25"/></svg>